<?xml version="1.0" standalone="no"?>
<!DOCTYPE svg PUBLIC "-//W3C//DTD SVG 20010904//EN"
 "http://www.w3.org/TR/2001/REC-SVG-20010904/DTD/svg10.dtd">
<svg version="1.0" xmlns="http://www.w3.org/2000/svg"
 width="612.000000pt" height="408.000000pt" viewBox="0 0 612.000000 408.000000"
 preserveAspectRatio="xMidYMid meet">

<g transform="translate(0.000000,408.000000) scale(0.100000,-0.100000)"
fill="#000000" stroke="none">
<path d="M1530 2539 l0 -484 98 -98 97 -97 86 0 c59 0 90 4 97 13 6 7 12 44
14 82 l3 70 86 -82 85 -83 197 0 197 0 82 81 c46 45 82 86 80 91 -1 5 2 7 8 3
5 -3 10 -1 10 4 0 25 28 6 125 -84 l102 -95 198 0 199 0 50 49 c28 27 72 70
98 94 26 25 44 48 41 51 -3 3 -13 0 -21 -7 -13 -9 -14 -9 -8 1 6 9 -52 12
-273 12 l-281 0 -1 33 c-2 32 -2 63 0 125 l1 32 191 0 191 0 72 69 c39 38 86
83 105 100 34 31 34 31 15 52 -10 12 -41 39 -67 60 -27 22 -46 39 -43 39 4 0
-9 14 -28 30 l-34 30 -209 -2 c-166 -2 -207 -6 -205 -16 1 -8 -1 -11 -6 -8 -5
3 -35 -22 -68 -56 -32 -33 -73 -72 -91 -85 l-33 -25 90 -85 c49 -47 90 -89 90
-94 0 -4 -39 -10 -87 -11 l-88 -3 -3 -70 c-1 -38 -4 -80 -7 -92 l-5 -23 -290
0 -290 0 0 95 0 95 193 0 c137 0 196 3 205 12 16 16 15 31 0 22 -7 -4 -4 2 6
14 20 23 32 30 21 12 -15 -24 10 -6 70 52 35 33 62 65 59 69 -3 5 1 6 9 3 8
-3 17 2 21 12 5 12 2 15 -9 10 -10 -3 -14 -2 -9 5 8 14 -46 70 -59 62 -6 -3
-7 -1 -4 4 4 6 -16 31 -43 57 l-50 46 -212 -2 -212 -3 -13 -25 c-7 -14 -13
-22 -13 -18 0 4 -36 -28 -81 -70 l-81 -77 86 -80 c47 -44 86 -85 86 -90 0 -12
-24 -15 -115 -18 l-60 -2 -3 -92 -3 -93 -79 0 c-43 0 -81 4 -84 9 -3 4 -6 180
-6 391 l-1 382 -47 45 c-26 24 -68 65 -94 91 l-48 46 0 -485z"/>
<path d="M3528 2535 l-3 -480 75 -78 c123 -129 71 -116 508 -123 l381 -7 33
34 c18 19 56 54 83 79 55 50 84 83 69 79 -5 -2 -30 17 -55 41 -132 129 -155
146 -268 201 -40 19 -49 20 -85 8 -23 -7 -43 -13 -46 -14 -125 -32 -128 -45
-19 -99 l91 -46 70 21 c39 11 77 23 84 26 11 4 14 -9 14 -62 l0 -68 -367 7
c-203 4 -369 9 -370 10 -1 1 -3 42 -4 91 -1 53 -6 93 -13 97 -8 5 -7 8 2 8 6
0 12 7 12 15 0 8 4 15 10 15 5 0 44 34 86 76 54 54 81 74 90 68 7 -5 53 -46
102 -91 49 -46 92 -80 96 -76 3 3 6 37 6 75 l0 68 279 0 c200 0 282 3 287 11
4 7 -32 49 -92 105 l-99 94 -191 0 -192 0 -36 -40 c-20 -22 -39 -40 -43 -40
-4 0 -27 -19 -51 -42 l-43 -43 -104 -2 -105 -2 0 172 c0 125 -4 177 -12 186
-10 11 -10 12 -1 7 9 -5 11 -2 6 11 -7 17 -103 119 -103 109 0 -3 -18 14 -40
37 l-39 42 -3 -480z m867 -285 c3 -6 -1 -7 -9 -4 -18 7 -21 14 -7 14 6 0 13
-4 16 -10z m-811 -201 c-3 -5 -10 -7 -15 -3 -5 3 -7 10 -3 15 3 5 10 7 15 3 5
-3 7 -10 3 -15z m525 -146 c2 -2 2 -5 -1 -8 -2 -3 -20 12 -39 33 l-34 37 35
-30 c19 -17 37 -31 39 -32z m-96 13 c29 -21 35 -36 14 -36 -19 0 -78 51 -71
61 6 10 14 6 57 -25z"/>
<path d="M3967 1929 c7 -7 15 -10 18 -7 3 3 -2 9 -12 12 -14 6 -15 5 -6 -5z"/>
<path d="M1698 1623 c7 -3 16 -2 19 1 4 3 -2 6 -13 5 -11 0 -14 -3 -6 -6z"/>
<path d="M1860 1620 c0 -5 5 -10 10 -10 6 0 10 5 10 10 0 6 -4 10 -10 10 -5 0
-10 -4 -10 -10z"/>
<path d="M2008 1623 c6 -2 18 -2 25 0 6 3 1 5 -13 5 -14 0 -19 -2 -12 -5z"/>
<path d="M2118 1623 c6 -2 18 -2 25 0 6 3 1 5 -13 5 -14 0 -19 -2 -12 -5z"/>
<path d="M2348 1623 c7 -3 16 -2 19 1 4 3 -2 6 -13 5 -11 0 -14 -3 -6 -6z"/>
<path d="M3323 1623 c9 -2 23 -2 30 0 6 3 -1 5 -18 5 -16 0 -22 -2 -12 -5z"/>
<path d="M4210 1620 c0 -5 7 -7 15 -4 8 4 15 8 15 10 0 2 -7 4 -15 4 -8 0 -15
-4 -15 -10z"/>
<path d="M4418 1623 c6 -2 18 -2 25 0 6 3 1 5 -13 5 -14 0 -19 -2 -12 -5z"/>
<path d="M4532 1610 c0 -14 2 -19 5 -12 2 6 2 18 0 25 -3 6 -5 1 -5 -13z"/>
<path d="M4558 1623 c6 -2 18 -2 25 0 6 3 1 5 -13 5 -14 0 -19 -2 -12 -5z"/>
<path d="M2143 1565 c0 -27 2 -38 4 -22 2 15 2 37 0 50 -2 12 -4 0 -4 -28z"/>
<path d="M2923 1595 c-3 -9 -3 -18 -1 -21 3 -3 8 4 11 16 6 23 -1 27 -10 5z"/>
<path d="M4343 1565 c0 -27 2 -38 4 -22 2 15 2 37 0 50 -2 12 -4 0 -4 -28z"/>
<path d="M4092 1584 c10 -10 20 -16 22 -13 3 3 -5 11 -17 18 -21 13 -21 12 -5
-5z"/>
<path d="M1562 1570 c0 -14 2 -19 5 -12 2 6 2 18 0 25 -3 6 -5 1 -5 -13z"/>
<path d="M1691 1574 c0 -11 3 -14 6 -6 3 7 2 16 -1 19 -3 4 -6 -2 -5 -13z"/>
<path d="M2301 1574 c0 -11 3 -14 6 -6 3 7 2 16 -1 19 -3 4 -6 -2 -5 -13z"/>
<path d="M2443 1575 c0 -8 4 -15 9 -15 4 0 8 7 8 15 0 8 -4 15 -8 15 -5 0 -9
-7 -9 -15z"/>
<path d="M3873 1555 c0 -22 2 -30 4 -17 2 12 2 30 0 40 -3 9 -5 -1 -4 -23z"/>
<path d="M2635 1569 c-10 -15 3 -25 16 -12 7 7 7 13 1 17 -6 3 -14 1 -17 -5z"/>
<path d="M3735 1570 c-3 -5 -1 -10 4 -10 6 0 11 5 11 10 0 6 -2 10 -4 10 -3 0
-8 -4 -11 -10z"/>
<path d="M4532 1550 c0 -19 2 -27 5 -17 2 9 2 25 0 35 -3 9 -5 1 -5 -18z"/>
<path d="M4017 1545 c-4 -8 -2 -17 3 -20 6 -4 10 3 10 14 0 25 -6 27 -13 6z"/>
<path d="M1878 1543 c6 -2 18 -2 25 0 6 3 1 5 -13 5 -14 0 -19 -2 -12 -5z"/>
<path d="M2440 1536 c0 -9 5 -16 10 -16 6 0 10 4 10 9 0 6 -4 13 -10 16 -5 3
-10 -1 -10 -9z"/>
<path d="M3151 1534 c0 -11 3 -14 6 -6 3 7 2 16 -1 19 -3 4 -6 -2 -5 -13z"/>
<path d="M3931 1534 c0 -11 3 -14 6 -6 3 7 2 16 -1 19 -3 4 -6 -2 -5 -13z"/>
<path d="M2937 1529 c7 -7 15 -10 18 -7 3 3 -2 9 -12 12 -14 6 -15 5 -6 -5z"/>
</g>
</svg>
